# xmcd
#
# Track frame offsets:
#	150
#	13060
#	27655
#	43812
#	57972
#	78065
#	95447
#	109437
#	121600
#	135177
#	151602
#	163447
#	176990
#	192605
#	205427
#	222915
#	239627
#	253262
#	273030
#
# Disc length: 3833
#
# Revision: 1
# Processed by: cddbd v1.5.1PL0 Copyright (c) Steve Scherf et al.
# Submitted via: EasyCDDAExtractor 4.6.9.1
# Normalized: r0:TDELIM( - )
#
DISCID=150ef713
DTITLE=Country Hits - Volume 69- November 1993
DYEAR=1993
DGENRE=Country
TTITLE0=Toby Keith - A little less talk and a lot more action
TTITLE1=Shawn Camp - Confessin' my love
TTITLE2=Rodney Crowell - Even cowgirls get the blues
TTITLE3=Cleve Francis - I won't let you walk away
TTITLE4=Stpehanie Davis - Moonlighter
TTITLE5=The Statler Brothers - Myu past is looking brighter (all the time)
TTITLE6=McBride and the Ride - No more cryin'
TTITLE7=Turner Nichols - She loves to hear me rock
TTITLE8=Ronna Reeves - That's all right with me
TTITLE9=Bo "T" - The cutting edge of love
TTITLE10=Ronnie McDowell - The gas and food exit
TTITLE11=Zaca Creek - Two wheel pony
TTITLE12=Billy Dean - We just disagree
TTITLE13=Brother Phelps - Were you really livin'
TTITLE14=The Mavericks - What a crying shame
TTITLE15=Roger Ballard - You can't get there from here
TTITLE16=Patty Loveless - You will
TTITLE17=Toby Keith - A little less talk and a lot more action - Dance Version
TTITLE18=Susie Luchsinger - I saw him in your eyes
EXTD=
EXTT0=
EXTT1=
EXTT2=
EXTT3=
EXTT4=
EXTT5=
EXTT6=
EXTT7=
EXTT8=
EXTT9=
EXTT10=
EXTT11=
EXTT12=
EXTT13=
EXTT14=
EXTT15=
EXTT16=
EXTT17=
EXTT18=
PLAYORDER=
